<mxfile host="65bd71144e">
    <diagram id="7_Ij5eyibn9TSz0UBTHZ" name="Page-1">
        <mxGraphModel dx="1376" dy="784" grid="1" gridSize="10" guides="1" tooltips="1" connect="1" arrows="1" fold="1" page="1" pageScale="1" pageWidth="827" pageHeight="1169" math="0" shadow="0">
            <root>
                <mxCell id="0"/>
                <mxCell id="1" parent="0"/>
                <mxCell id="2" value="vulnerable" style="rounded=0;whiteSpace=wrap;html=1;fillColor=#dae8fc;strokeColor=#6c8ebf;fontSize=16;" parent="1" vertex="1">
                    <mxGeometry x="110" y="170" width="100" height="50" as="geometry"/>
                </mxCell>
                <mxCell id="3" value="obj" style="rounded=0;whiteSpace=wrap;html=1;fillColor=#d5e8d4;strokeColor=#82b366;fontSize=16;" parent="1" vertex="1">
                    <mxGeometry x="210" y="170" width="100" height="50" as="geometry"/>
                </mxCell>
                <mxCell id="4" value="obj" style="rounded=0;whiteSpace=wrap;html=1;fillColor=#d5e8d4;strokeColor=#82b366;fontSize=16;" parent="1" vertex="1">
                    <mxGeometry x="310" y="170" width="100" height="50" as="geometry"/>
                </mxCell>
                <mxCell id="5" value="obj" style="rounded=0;whiteSpace=wrap;html=1;fillColor=#d5e8d4;strokeColor=#82b366;fontSize=16;" parent="1" vertex="1">
                    <mxGeometry x="470" y="170" width="100" height="50" as="geometry"/>
                </mxCell>
                <mxCell id="6" value="......" style="text;html=1;strokeColor=none;fillColor=none;align=center;verticalAlign=middle;whiteSpace=wrap;rounded=0;fontSize=16;" parent="1" vertex="1">
                    <mxGeometry x="410" y="180" width="60" height="30" as="geometry"/>
                </mxCell>
                <mxCell id="8" value="victim" style="rounded=0;whiteSpace=wrap;html=1;fillColor=#fff2cc;strokeColor=#d6b656;fontSize=16;" parent="1" vertex="1">
                    <mxGeometry x="210" y="270" width="100" height="50" as="geometry"/>
                </mxCell>
                <mxCell id="9" value="victim" style="rounded=0;whiteSpace=wrap;html=1;fillColor=#fff2cc;strokeColor=#d6b656;fontSize=16;" parent="1" vertex="1">
                    <mxGeometry x="310" y="270" width="100" height="50" as="geometry"/>
                </mxCell>
                <mxCell id="10" value="obj" style="rounded=0;whiteSpace=wrap;html=1;fillColor=#d5e8d4;strokeColor=#82b366;fontSize=16;" parent="1" vertex="1">
                    <mxGeometry x="470" y="270" width="100" height="50" as="geometry"/>
                </mxCell>
                <mxCell id="11" value="......" style="text;html=1;strokeColor=none;fillColor=none;align=center;verticalAlign=middle;whiteSpace=wrap;rounded=0;fontSize=16;" parent="1" vertex="1">
                    <mxGeometry x="410" y="280" width="60" height="30" as="geometry"/>
                </mxCell>
                <mxCell id="7" value="vulnerable" style="rounded=0;whiteSpace=wrap;html=1;fillColor=#f8cecc;strokeColor=#b85450;fontSize=16;" parent="1" vertex="1">
                    <mxGeometry x="110" y="270" width="120" height="50" as="geometry"/>
                </mxCell>
                <mxCell id="12" value="" style="endArrow=none;html=1;exitX=0.85;exitY=0.98;exitDx=0;exitDy=0;exitPerimeter=0;fontSize=16;" parent="1" source="7" edge="1">
                    <mxGeometry width="50" height="50" relative="1" as="geometry">
                        <mxPoint x="190" y="320" as="sourcePoint"/>
                        <mxPoint x="212" y="270" as="targetPoint"/>
                    </mxGeometry>
                </mxCell>
                <mxCell id="13" value="vulnerable" style="rounded=0;whiteSpace=wrap;html=1;fillColor=#dae8fc;strokeColor=#6c8ebf;fontSize=16;" parent="1" vertex="1">
                    <mxGeometry x="730" y="140" width="100" height="50" as="geometry"/>
                </mxCell>
                <mxCell id="14" value="obj" style="rounded=0;whiteSpace=wrap;html=1;fillColor=#d5e8d4;strokeColor=#82b366;fontSize=16;" parent="1" vertex="1">
                    <mxGeometry x="830" y="140" width="100" height="50" as="geometry"/>
                </mxCell>
                <mxCell id="15" value="obj" style="rounded=0;whiteSpace=wrap;html=1;fillColor=#d5e8d4;strokeColor=#82b366;fontSize=16;" parent="1" vertex="1">
                    <mxGeometry x="930" y="140" width="100" height="50" as="geometry"/>
                </mxCell>
                <mxCell id="16" value="obj" style="rounded=0;whiteSpace=wrap;html=1;fillColor=#d5e8d4;strokeColor=#82b366;fontSize=16;" parent="1" vertex="1">
                    <mxGeometry x="1090" y="140" width="100" height="50" as="geometry"/>
                </mxCell>
                <mxCell id="17" value="......" style="text;html=1;strokeColor=none;fillColor=none;align=center;verticalAlign=middle;whiteSpace=wrap;rounded=0;fontSize=16;" parent="1" vertex="1">
                    <mxGeometry x="1030" y="150" width="60" height="30" as="geometry"/>
                </mxCell>
                <mxCell id="18" value="&lt;font style=&quot;font-size: 16px;&quot;&gt;pointer&lt;/font&gt;" style="shape=flexArrow;endArrow=classic;html=1;fontSize=16;" parent="1" edge="1">
                    <mxGeometry x="-1" y="-10" width="50" height="50" relative="1" as="geometry">
                        <mxPoint x="730" y="90" as="sourcePoint"/>
                        <mxPoint x="730" y="140" as="targetPoint"/>
                        <mxPoint x="10" y="-10" as="offset"/>
                    </mxGeometry>
                </mxCell>
                <mxCell id="20" value="spray obj" style="rounded=0;whiteSpace=wrap;html=1;fillColor=#f8cecc;strokeColor=#b85450;fontSize=16;" parent="1" vertex="1">
                    <mxGeometry x="730" y="270" width="100" height="50" as="geometry"/>
                </mxCell>
                <mxCell id="21" value="spray obj" style="rounded=0;whiteSpace=wrap;html=1;fillColor=#f8cecc;strokeColor=#b85450;fontSize=16;" parent="1" vertex="1">
                    <mxGeometry x="830" y="270" width="100" height="50" as="geometry"/>
                </mxCell>
                <mxCell id="22" value="spray obj" style="rounded=0;whiteSpace=wrap;html=1;fillColor=#f8cecc;strokeColor=#b85450;fontSize=16;" parent="1" vertex="1">
                    <mxGeometry x="930" y="270" width="100" height="50" as="geometry"/>
                </mxCell>
                <mxCell id="23" value="spray obj" style="rounded=0;whiteSpace=wrap;html=1;fillColor=#f8cecc;strokeColor=#b85450;fontSize=16;" parent="1" vertex="1">
                    <mxGeometry x="1090" y="270" width="100" height="50" as="geometry"/>
                </mxCell>
                <mxCell id="24" value="......" style="text;html=1;strokeColor=none;fillColor=none;align=center;verticalAlign=middle;whiteSpace=wrap;rounded=0;fontSize=16;" parent="1" vertex="1">
                    <mxGeometry x="1030" y="280" width="60" height="30" as="geometry"/>
                </mxCell>
                <mxCell id="25" value="&lt;font style=&quot;font-size: 16px;&quot;&gt;dangling pointer&lt;/font&gt;" style="shape=flexArrow;endArrow=classic;html=1;fontSize=16;" parent="1" edge="1">
                    <mxGeometry x="-1" y="-10" width="50" height="50" relative="1" as="geometry">
                        <mxPoint x="730" y="220" as="sourcePoint"/>
                        <mxPoint x="730" y="270" as="targetPoint"/>
                        <mxPoint x="10" y="-10" as="offset"/>
                    </mxGeometry>
                </mxCell>
                <mxCell id="26" value="(a) 溢出攻击模型" style="text;html=1;strokeColor=none;fillColor=none;align=center;verticalAlign=middle;whiteSpace=wrap;rounded=0;fontSize=16;fontFamily=Courier New;" vertex="1" parent="1">
                    <mxGeometry x="260" y="340" width="150" height="30" as="geometry"/>
                </mxCell>
                <mxCell id="27" value="(b) 释放后使用攻击模型" style="text;html=1;strokeColor=none;fillColor=none;align=center;verticalAlign=middle;whiteSpace=wrap;rounded=0;fontSize=16;" vertex="1" parent="1">
                    <mxGeometry x="890" y="340" width="170" height="30" as="geometry"/>
                </mxCell>
            </root>
        </mxGraphModel>
    </diagram>
</mxfile>